<?xml version="1.0" encoding="UTF-8" standalone="no"?>
<!DOCTYPE svg PUBLIC "-//W3C//DTD SVG 1.1//EN"
 "http://www.w3.org/Graphics/SVG/1.1/DTD/svg11.dtd">
<!-- Generated by graphviz version 2.47.1 (20210417.1919)
 -->
<!-- Title: Gen296 Pages: 1 -->
<svg width="133pt" height="378pt"
 viewBox="0.00 0.00 133.00 377.60" xmlns="http://www.w3.org/2000/svg" xmlns:xlink="http://www.w3.org/1999/xlink">
<g id="graph0" class="graph" transform="scale(1 1) rotate(0) translate(4 373.6)">
<title>Gen296</title>
<polygon fill="white" stroke="transparent" points="-4,4 -4,-373.6 129,-373.6 129,4 -4,4"/>
<!-- 0 -->
<g id="node1" class="node">
<title>0</title>
<ellipse fill="none" stroke="black" cx="102" cy="-307" rx="18" ry="18"/>
<ellipse fill="none" stroke="black" cx="102" cy="-307" rx="22" ry="22"/>
<text text-anchor="middle" x="102" y="-303.3" font-family="Times New Roman,serif" font-size="14.00">0</text>
</g>
<!-- 1 -->
<g id="node3" class="node">
<title>1</title>
<ellipse fill="none" stroke="black" cx="61" cy="-212" rx="18" ry="18"/>
<ellipse fill="none" stroke="black" cx="61" cy="-212" rx="22" ry="22"/>
<text text-anchor="middle" x="61" y="-208.3" font-family="Times New Roman,serif" font-size="14.00">1</text>
</g>
<!-- 0&#45;&gt;1 -->
<g id="edge2" class="edge">
<title>0&#45;&gt;1</title>
<path fill="none" stroke="black" d="M84.69,-293.12C76.91,-286.3 68.49,-277.21 64,-267 60.91,-259.97 59.49,-251.91 58.99,-244.21"/>
<polygon fill="black" stroke="black" points="62.48,-243.99 58.8,-234.05 55.48,-244.12 62.48,-243.99"/>
<text text-anchor="middle" x="67.5" y="-255.8" font-family="Times New Roman,serif" font-size="14.00">c</text>
</g>
<!-- 2 -->
<g id="node4" class="node">
<title>2</title>
<ellipse fill="none" stroke="black" cx="100" cy="-22" rx="18" ry="18"/>
<ellipse fill="none" stroke="black" cx="100" cy="-22" rx="22" ry="22"/>
<text text-anchor="middle" x="100" y="-18.3" font-family="Times New Roman,serif" font-size="14.00">2</text>
</g>
<!-- 0&#45;&gt;2 -->
<g id="edge3" class="edge">
<title>0&#45;&gt;2</title>
<path fill="none" stroke="black" d="M101.85,-284.73C101.5,-235.23 100.63,-112.16 100.22,-54.17"/>
<polygon fill="black" stroke="black" points="103.72,-54.11 100.15,-44.13 96.72,-54.16 103.72,-54.11"/>
<text text-anchor="middle" x="104" y="-160.8" font-family="Times New Roman,serif" font-size="14.00">l</text>
</g>
<!-- S -->
<g id="node2" class="node">
<title>S</title>
<ellipse fill="black" stroke="black" cx="102" cy="-367.8" rx="1.8" ry="1.8"/>
</g>
<!-- S&#45;&gt;0 -->
<g id="edge1" class="edge">
<title>S&#45;&gt;0</title>
<path fill="none" stroke="black" d="M102,-365.78C102,-362.41 102,-351.16 102,-339.48"/>
<polygon fill="black" stroke="black" points="105.5,-339.29 102,-329.29 98.5,-339.29 105.5,-339.29"/>
</g>
<!-- 1&#45;&gt;0 -->
<g id="edge5" class="edge">
<title>1&#45;&gt;0</title>
<path fill="none" stroke="black" d="M69.54,-232.38C75.2,-245.21 82.73,-262.28 89.11,-276.76"/>
<polygon fill="black" stroke="black" points="86.07,-278.54 93.3,-286.28 92.47,-275.71 86.07,-278.54"/>
<text text-anchor="middle" x="88" y="-255.8" font-family="Times New Roman,serif" font-size="14.00">o</text>
</g>
<!-- 4 -->
<g id="node6" class="node">
<title>4</title>
<ellipse fill="none" stroke="black" cx="61" cy="-117" rx="18" ry="18"/>
<ellipse fill="none" stroke="black" cx="61" cy="-117" rx="22" ry="22"/>
<text text-anchor="middle" x="61" y="-113.3" font-family="Times New Roman,serif" font-size="14.00">4</text>
</g>
<!-- 1&#45;&gt;4 -->
<g id="edge4" class="edge">
<title>1&#45;&gt;4</title>
<path fill="none" stroke="black" d="M54.25,-190.83C51.64,-180.72 49.58,-168.26 51,-157 51.36,-154.14 51.87,-151.19 52.46,-148.25"/>
<polygon fill="black" stroke="black" points="55.88,-148.99 54.73,-138.46 49.06,-147.41 55.88,-148.99"/>
<text text-anchor="middle" x="53" y="-160.8" font-family="Times New Roman,serif" font-size="14.00">l</text>
</g>
<!-- 2&#45;&gt;0 -->
<g id="edge7" class="edge">
<title>2&#45;&gt;0</title>
<path fill="none" stroke="black" d="M109.05,-42.44C111.47,-48.56 113.76,-55.44 115,-62 119.64,-86.48 119.76,-245.42 116,-267 115.43,-270.26 114.62,-273.61 113.66,-276.91"/>
<polygon fill="black" stroke="black" points="110.3,-275.92 110.48,-286.52 116.94,-278.13 110.3,-275.92"/>
<text text-anchor="middle" x="121.5" y="-160.8" font-family="Times New Roman,serif" font-size="14.00">u</text>
</g>
<!-- 2&#45;&gt;4 -->
<g id="edge6" class="edge">
<title>2&#45;&gt;4</title>
<path fill="none" stroke="black" d="M91.74,-42.69C86.37,-55.51 79.26,-72.45 73.24,-86.82"/>
<polygon fill="black" stroke="black" points="69.91,-85.7 69.27,-96.28 76.37,-88.41 69.91,-85.7"/>
<text text-anchor="middle" x="86.5" y="-65.8" font-family="Times New Roman,serif" font-size="14.00">c</text>
</g>
<!-- 3 -->
<g id="node5" class="node">
<title>3</title>
<ellipse fill="none" stroke="black" cx="22" cy="-22" rx="18" ry="18"/>
<ellipse fill="none" stroke="black" cx="22" cy="-22" rx="22" ry="22"/>
<text text-anchor="middle" x="22" y="-18.3" font-family="Times New Roman,serif" font-size="14.00">3</text>
</g>
<!-- 3&#45;&gt;1 -->
<g id="edge8" class="edge">
<title>3&#45;&gt;1</title>
<path fill="none" stroke="black" d="M19.25,-43.91C16.83,-67.43 14.82,-106.58 23,-139 27.1,-155.26 35.56,-171.91 43.46,-185.1"/>
<polygon fill="black" stroke="black" points="40.52,-186.99 48.78,-193.63 46.46,-183.29 40.52,-186.99"/>
<text text-anchor="middle" x="26.5" y="-113.3" font-family="Times New Roman,serif" font-size="14.00">u</text>
</g>
<!-- 4&#45;&gt;1 -->
<g id="edge11" class="edge">
<title>4&#45;&gt;1</title>
<path fill="none" stroke="black" d="M61,-139.02C61,-151.01 61,-166.28 61,-179.66"/>
<polygon fill="black" stroke="black" points="57.5,-179.9 61,-189.9 64.5,-179.9 57.5,-179.9"/>
<text text-anchor="middle" x="64.5" y="-160.8" font-family="Times New Roman,serif" font-size="14.00">u</text>
</g>
<!-- 4&#45;&gt;2 -->
<g id="edge10" class="edge">
<title>4&#45;&gt;2</title>
<path fill="none" stroke="black" d="M60.51,-94.76C60.98,-84.5 62.6,-72.22 67,-62 69.58,-56.01 73.4,-50.25 77.53,-45.07"/>
<polygon fill="black" stroke="black" points="80.22,-47.31 84.15,-37.48 74.94,-42.71 80.22,-47.31"/>
<text text-anchor="middle" x="71" y="-65.8" font-family="Times New Roman,serif" font-size="14.00">o</text>
</g>
<!-- 4&#45;&gt;3 -->
<g id="edge9" class="edge">
<title>4&#45;&gt;3</title>
<path fill="none" stroke="black" d="M47.38,-99.38C42.53,-92.76 37.43,-84.85 34,-77 30.82,-69.72 28.44,-61.5 26.68,-53.72"/>
<polygon fill="black" stroke="black" points="30.09,-52.96 24.7,-43.85 23.23,-54.34 30.09,-52.96"/>
<text text-anchor="middle" x="37.5" y="-65.8" font-family="Times New Roman,serif" font-size="14.00">a</text>
</g>
</g>
</svg>
