<?xml version="1.0" encoding="UTF-8" standalone="no"?>
<!DOCTYPE svg PUBLIC "-//W3C//DTD SVG 1.1//EN"
 "http://www.w3.org/Graphics/SVG/1.1/DTD/svg11.dtd">
<!-- Generated by graphviz version 2.47.1 (20210417.1919)
 -->
<!-- Title: Gen600 Pages: 1 -->
<svg width="332pt" height="846pt"
 viewBox="0.00 0.00 331.58 845.59" xmlns="http://www.w3.org/2000/svg" xmlns:xlink="http://www.w3.org/1999/xlink">
<g id="graph0" class="graph" transform="scale(1 1) rotate(0) translate(4 841.59)">
<title>Gen600</title>
<polygon fill="white" stroke="transparent" points="-4,4 -4,-841.59 327.58,-841.59 327.58,4 -4,4"/>
<!-- 0 -->
<g id="node1" class="node">
<title>0</title>
<ellipse fill="none" stroke="black" cx="193.58" cy="-774.99" rx="18" ry="18"/>
<ellipse fill="none" stroke="black" cx="193.58" cy="-774.99" rx="22" ry="22"/>
<text text-anchor="middle" x="193.58" y="-771.29" font-family="Times New Roman,serif" font-size="14.00">0</text>
</g>
<!-- 1 -->
<g id="node3" class="node">
<title>1</title>
<ellipse fill="none" stroke="black" cx="148.58" cy="-679.99" rx="18" ry="18"/>
<ellipse fill="none" stroke="black" cx="148.58" cy="-679.99" rx="22" ry="22"/>
<text text-anchor="middle" x="148.58" y="-676.29" font-family="Times New Roman,serif" font-size="14.00">1</text>
</g>
<!-- 0&#45;&gt;1 -->
<g id="edge2" class="edge">
<title>0&#45;&gt;1</title>
<path fill="none" stroke="black" d="M184.26,-754.72C177.92,-741.63 169.43,-724.09 162.33,-709.4"/>
<polygon fill="black" stroke="black" points="165.4,-707.71 157.89,-700.23 159.1,-710.76 165.4,-707.71"/>
<text text-anchor="middle" x="179.58" y="-723.79" font-family="Times New Roman,serif" font-size="14.00">A</text>
</g>
<!-- 6 -->
<g id="node8" class="node">
<title>6</title>
<ellipse fill="none" stroke="black" cx="172.58" cy="-391.99" rx="18" ry="18"/>
<ellipse fill="none" stroke="black" cx="172.58" cy="-391.99" rx="22" ry="22"/>
<text text-anchor="middle" x="172.58" y="-388.29" font-family="Times New Roman,serif" font-size="14.00">6</text>
</g>
<!-- 0&#45;&gt;6 -->
<g id="edge3" class="edge">
<title>0&#45;&gt;6</title>
<path fill="none" stroke="black" d="M171.44,-773.35C120.75,-770.59 0.58,-756.12 0.58,-680.99 0.58,-680.99 0.58,-680.99 0.58,-485.99 0.58,-460.96 -1.74,-449.04 16.58,-431.99 43.9,-406.58 62.4,-423.09 98.58,-413.99 112.93,-410.39 128.71,-405.97 142.01,-402.12"/>
<polygon fill="black" stroke="black" points="143,-405.47 151.62,-399.31 141.04,-398.75 143,-405.47"/>
<text text-anchor="middle" x="5.58" y="-579.79" font-family="Times New Roman,serif" font-size="14.00">X</text>
</g>
<!-- S -->
<g id="node2" class="node">
<title>S</title>
<ellipse fill="black" stroke="black" cx="193.58" cy="-835.79" rx="1.8" ry="1.8"/>
</g>
<!-- S&#45;&gt;0 -->
<g id="edge1" class="edge">
<title>S&#45;&gt;0</title>
<path fill="none" stroke="black" d="M193.58,-833.77C193.58,-830.4 193.58,-819.15 193.58,-807.47"/>
<polygon fill="black" stroke="black" points="197.08,-807.27 193.58,-797.27 190.08,-807.27 197.08,-807.27"/>
</g>
<!-- 5 -->
<g id="node7" class="node">
<title>5</title>
<ellipse fill="none" stroke="black" cx="145.58" cy="-583.49" rx="18" ry="18"/>
<ellipse fill="none" stroke="black" cx="145.58" cy="-583.49" rx="22" ry="22"/>
<text text-anchor="middle" x="145.58" y="-579.79" font-family="Times New Roman,serif" font-size="14.00">5</text>
</g>
<!-- 1&#45;&gt;5 -->
<g id="edge5" class="edge">
<title>1&#45;&gt;5</title>
<path fill="none" stroke="black" d="M147.9,-657.55C147.51,-645.14 147,-629.3 146.57,-615.54"/>
<polygon fill="black" stroke="black" points="150.06,-615.41 146.25,-605.52 143.07,-615.63 150.06,-615.41"/>
<text text-anchor="middle" x="152.58" y="-628.79" font-family="Times New Roman,serif" font-size="14.00">X</text>
</g>
<!-- 14 -->
<g id="node11" class="node">
<title>14</title>
<ellipse fill="none" stroke="black" cx="208.58" cy="-583.49" rx="19.5" ry="19.5"/>
<ellipse fill="none" stroke="black" cx="208.58" cy="-583.49" rx="23.5" ry="23.5"/>
<text text-anchor="middle" x="208.58" y="-579.79" font-family="Times New Roman,serif" font-size="14.00">14</text>
</g>
<!-- 1&#45;&gt;14 -->
<g id="edge4" class="edge">
<title>1&#45;&gt;14</title>
<path fill="none" stroke="black" d="M160.15,-660.77C168.86,-647.05 180.96,-628 190.88,-612.37"/>
<polygon fill="black" stroke="black" points="194.02,-613.95 196.43,-603.63 188.12,-610.19 194.02,-613.95"/>
<text text-anchor="middle" x="187.58" y="-628.79" font-family="Times New Roman,serif" font-size="14.00">B</text>
</g>
<!-- 2 -->
<g id="node4" class="node">
<title>2</title>
<ellipse fill="none" stroke="black" cx="301.58" cy="-296.99" rx="18" ry="18"/>
<ellipse fill="none" stroke="black" cx="301.58" cy="-296.99" rx="22" ry="22"/>
<text text-anchor="middle" x="301.58" y="-293.29" font-family="Times New Roman,serif" font-size="14.00">2</text>
</g>
<!-- 2&#45;&gt;0 -->
<g id="edge7" class="edge">
<title>2&#45;&gt;0</title>
<path fill="none" stroke="black" d="M295.64,-318.48C290.73,-337.2 284.58,-365.72 284.58,-390.99 284.58,-680.99 284.58,-680.99 284.58,-680.99 284.58,-717.16 248.98,-744.47 222.31,-759.85"/>
<polygon fill="black" stroke="black" points="220.41,-756.9 213.33,-764.78 223.78,-763.04 220.41,-756.9"/>
<text text-anchor="middle" x="289.08" y="-530.79" font-family="Times New Roman,serif" font-size="14.00">Z</text>
</g>
<!-- 4 -->
<g id="node6" class="node">
<title>4</title>
<ellipse fill="none" stroke="black" cx="78.58" cy="-201.99" rx="18" ry="18"/>
<ellipse fill="none" stroke="black" cx="78.58" cy="-201.99" rx="22" ry="22"/>
<text text-anchor="middle" x="78.58" y="-198.29" font-family="Times New Roman,serif" font-size="14.00">4</text>
</g>
<!-- 2&#45;&gt;4 -->
<g id="edge6" class="edge">
<title>2&#45;&gt;4</title>
<path fill="none" stroke="black" d="M284.32,-283.25C279.96,-280.33 275.2,-277.38 270.58,-274.99 216,-246.78 147.76,-223.89 109.07,-211.96"/>
<polygon fill="black" stroke="black" points="110.03,-208.59 99.44,-209.03 107.99,-215.29 110.03,-208.59"/>
<text text-anchor="middle" x="234.58" y="-245.79" font-family="Times New Roman,serif" font-size="14.00">A</text>
</g>
<!-- 3 -->
<g id="node5" class="node">
<title>3</title>
<ellipse fill="none" stroke="black" cx="218.58" cy="-486.99" rx="18" ry="18"/>
<ellipse fill="none" stroke="black" cx="218.58" cy="-486.99" rx="22" ry="22"/>
<text text-anchor="middle" x="218.58" y="-483.29" font-family="Times New Roman,serif" font-size="14.00">3</text>
</g>
<!-- 3&#45;&gt;6 -->
<g id="edge8" class="edge">
<title>3&#45;&gt;6</title>
<path fill="none" stroke="black" d="M209.05,-466.72C202.53,-453.54 193.78,-435.86 186.49,-421.11"/>
<polygon fill="black" stroke="black" points="189.51,-419.33 181.94,-411.92 183.24,-422.44 189.51,-419.33"/>
<text text-anchor="middle" x="203.58" y="-435.79" font-family="Times New Roman,serif" font-size="14.00">C</text>
</g>
<!-- 4&#45;&gt;1 -->
<g id="edge12" class="edge">
<title>4&#45;&gt;1</title>
<path fill="none" stroke="black" d="M66.14,-220.22C54.4,-238.21 38.58,-267.7 38.58,-295.99 38.58,-584.49 38.58,-584.49 38.58,-584.49 38.58,-626.7 85.76,-654.15 118.32,-668.08"/>
<polygon fill="black" stroke="black" points="117.31,-671.44 127.89,-671.96 119.94,-664.96 117.31,-671.44"/>
<text text-anchor="middle" x="43.08" y="-435.79" font-family="Times New Roman,serif" font-size="14.00">Z</text>
</g>
<!-- 8 -->
<g id="node9" class="node">
<title>8</title>
<ellipse fill="none" stroke="black" cx="90.58" cy="-109.49" rx="18" ry="18"/>
<text text-anchor="middle" x="90.58" y="-105.79" font-family="Times New Roman,serif" font-size="14.00">8</text>
</g>
<!-- 4&#45;&gt;8 -->
<g id="edge10" class="edge">
<title>4&#45;&gt;8</title>
<path fill="none" stroke="black" d="M71.82,-180.79C69.34,-170.56 67.76,-158.01 70.58,-146.99 71.74,-142.46 73.59,-137.89 75.72,-133.58"/>
<polygon fill="black" stroke="black" points="78.85,-135.15 80.62,-124.71 72.72,-131.76 78.85,-135.15"/>
<text text-anchor="middle" x="75.58" y="-150.79" font-family="Times New Roman,serif" font-size="14.00">C</text>
</g>
<!-- 4&#45;&gt;8 -->
<g id="edge11" class="edge">
<title>4&#45;&gt;8</title>
<path fill="none" stroke="black" d="M81.36,-180C83.04,-167.4 85.18,-151.22 86.98,-137.65"/>
<polygon fill="black" stroke="black" points="90.49,-137.81 88.33,-127.44 83.55,-136.89 90.49,-137.81"/>
<text text-anchor="middle" x="91.58" y="-150.79" font-family="Times New Roman,serif" font-size="14.00">Y</text>
</g>
<!-- 10 -->
<g id="node10" class="node">
<title>10</title>
<ellipse fill="none" stroke="black" cx="35.58" cy="-109.49" rx="19.5" ry="19.5"/>
<text text-anchor="middle" x="35.58" y="-105.79" font-family="Times New Roman,serif" font-size="14.00">10</text>
</g>
<!-- 4&#45;&gt;10 -->
<g id="edge9" class="edge">
<title>4&#45;&gt;10</title>
<path fill="none" stroke="black" d="M67.19,-183.08C63.27,-176.56 59.01,-169.07 55.58,-161.99 51.87,-154.35 48.34,-145.83 45.3,-137.95"/>
<polygon fill="black" stroke="black" points="48.52,-136.57 41.74,-128.44 41.96,-139.03 48.52,-136.57"/>
<text text-anchor="middle" x="60.58" y="-150.79" font-family="Times New Roman,serif" font-size="14.00">A</text>
</g>
<!-- 5&#45;&gt;3 -->
<g id="edge13" class="edge">
<title>5&#45;&gt;3</title>
<path fill="none" stroke="black" d="M159.75,-566.16C165.96,-558.87 173.26,-550.1 179.58,-541.99 186.58,-533.01 193.97,-522.94 200.41,-513.95"/>
<polygon fill="black" stroke="black" points="203.31,-515.92 206.25,-505.74 197.61,-511.86 203.31,-515.92"/>
<text text-anchor="middle" x="196.58" y="-530.79" font-family="Times New Roman,serif" font-size="14.00">B</text>
</g>
<!-- 5&#45;&gt;4 -->
<g id="edge14" class="edge">
<title>5&#45;&gt;4</title>
<path fill="none" stroke="black" d="M129.23,-568.6C111.17,-551.61 84.58,-520.99 84.58,-487.99 84.58,-487.99 84.58,-487.99 84.58,-295.99 84.58,-275.3 83.08,-252.07 81.58,-234"/>
<polygon fill="black" stroke="black" points="85.07,-233.68 80.71,-224.02 78.1,-234.29 85.07,-233.68"/>
<text text-anchor="middle" x="89.58" y="-388.29" font-family="Times New Roman,serif" font-size="14.00">Y</text>
</g>
<!-- 18 -->
<g id="node13" class="node">
<title>18</title>
<ellipse fill="none" stroke="black" cx="131.58" cy="-296.99" rx="19.5" ry="19.5"/>
<text text-anchor="middle" x="131.58" y="-293.29" font-family="Times New Roman,serif" font-size="14.00">18</text>
</g>
<!-- 5&#45;&gt;18 -->
<g id="edge15" class="edge">
<title>5&#45;&gt;18</title>
<path fill="none" stroke="black" d="M144.53,-561.11C142.04,-510.6 135.81,-383.9 133,-326.75"/>
<polygon fill="black" stroke="black" points="136.48,-326.42 132.5,-316.6 129.49,-326.76 136.48,-326.42"/>
<text text-anchor="middle" x="144.08" y="-435.79" font-family="Times New Roman,serif" font-size="14.00">Z</text>
</g>
<!-- 6&#45;&gt;2 -->
<g id="edge18" class="edge">
<title>6&#45;&gt;2</title>
<path fill="none" stroke="black" d="M189.98,-378.45C212,-362.57 250.14,-335.08 275.61,-316.72"/>
<polygon fill="black" stroke="black" points="277.98,-319.32 284.05,-310.63 273.89,-313.64 277.98,-319.32"/>
<text text-anchor="middle" x="249.58" y="-340.79" font-family="Times New Roman,serif" font-size="14.00">Y</text>
</g>
<!-- 6&#45;&gt;5 -->
<g id="edge16" class="edge">
<title>6&#45;&gt;5</title>
<path fill="none" stroke="black" d="M169.62,-413.8C164.88,-447.06 155.57,-512.4 150.03,-551.27"/>
<polygon fill="black" stroke="black" points="146.52,-551.09 148.57,-561.49 153.45,-552.08 146.52,-551.09"/>
<text text-anchor="middle" x="167.58" y="-483.29" font-family="Times New Roman,serif" font-size="14.00">A</text>
</g>
<!-- 6&#45;&gt;18 -->
<g id="edge17" class="edge">
<title>6&#45;&gt;18</title>
<path fill="none" stroke="black" d="M163.89,-371.27C157.87,-357.62 149.8,-339.31 143.23,-324.41"/>
<polygon fill="black" stroke="black" points="146.4,-322.92 139.16,-315.19 139.99,-325.75 146.4,-322.92"/>
<text text-anchor="middle" x="159.58" y="-340.79" font-family="Times New Roman,serif" font-size="14.00">B</text>
</g>
<!-- 15 -->
<g id="node12" class="node">
<title>15</title>
<ellipse fill="none" stroke="black" cx="118.58" cy="-19.5" rx="19.5" ry="19.5"/>
<text text-anchor="middle" x="118.58" y="-15.8" font-family="Times New Roman,serif" font-size="14.00">15</text>
</g>
<!-- 8&#45;&gt;15 -->
<g id="edge19" class="edge">
<title>8&#45;&gt;15</title>
<path fill="none" stroke="black" d="M95.85,-91.94C99.77,-79.6 105.23,-62.47 109.81,-48.07"/>
<polygon fill="black" stroke="black" points="113.26,-48.77 112.95,-38.18 106.59,-46.65 113.26,-48.77"/>
<text text-anchor="middle" x="111.08" y="-60.8" font-family="Times New Roman,serif" font-size="14.00">Z</text>
</g>
<!-- 14&#45;&gt;0 -->
<g id="edge20" class="edge">
<title>14&#45;&gt;0</title>
<path fill="none" stroke="black" d="M206.8,-607.06C204.12,-640.87 199.06,-704.76 196.04,-742.94"/>
<polygon fill="black" stroke="black" points="192.54,-742.74 195.24,-752.99 199.52,-743.29 192.54,-742.74"/>
<text text-anchor="middle" x="206.58" y="-676.29" font-family="Times New Roman,serif" font-size="14.00">C</text>
</g>
<!-- 14&#45;&gt;3 -->
<g id="edge21" class="edge">
<title>14&#45;&gt;3</title>
<path fill="none" stroke="black" d="M210.95,-560.1C212.25,-547.87 213.87,-532.53 215.28,-519.15"/>
<polygon fill="black" stroke="black" points="218.79,-519.25 216.37,-508.93 211.83,-518.51 218.79,-519.25"/>
<text text-anchor="middle" x="218.58" y="-530.79" font-family="Times New Roman,serif" font-size="14.00">X</text>
</g>
<!-- 18&#45;&gt;15 -->
<g id="edge24" class="edge">
<title>18&#45;&gt;15</title>
<path fill="none" stroke="black" d="M130.71,-277.49C128.49,-230.45 122.62,-106.04 119.94,-49.36"/>
<polygon fill="black" stroke="black" points="123.44,-49.11 119.47,-39.28 116.44,-49.44 123.44,-49.11"/>
<text text-anchor="middle" x="130.58" y="-150.79" font-family="Times New Roman,serif" font-size="14.00">X</text>
</g>
<!-- 18&#45;&gt;18 -->
<g id="edge22" class="edge">
<title>18&#45;&gt;18</title>
<path fill="none" stroke="black" d="M151.26,-299.1C160.72,-299.36 169.08,-298.66 169.08,-296.99 169.08,-295.98 165.98,-295.32 161.41,-295.02"/>
<polygon fill="black" stroke="black" points="161.31,-291.52 151.26,-294.89 161.21,-298.52 161.31,-291.52"/>
<text text-anchor="middle" x="174.08" y="-293.29" font-family="Times New Roman,serif" font-size="14.00">A</text>
</g>
<!-- 18&#45;&gt;18 -->
<g id="edge23" class="edge">
<title>18&#45;&gt;18</title>
<path fill="none" stroke="black" d="M150.92,-300.54C168.38,-302.26 187.08,-301.08 187.08,-296.99 187.08,-293.7 174.97,-292.3 161.14,-292.77"/>
<polygon fill="black" stroke="black" points="160.67,-289.29 150.92,-293.45 161.13,-296.28 160.67,-289.29"/>
<text text-anchor="middle" x="192.08" y="-293.29" font-family="Times New Roman,serif" font-size="14.00">C</text>
</g>
<!-- 18&#45;&gt;18 -->
<g id="edge25" class="edge">
<title>18&#45;&gt;18</title>
<path fill="none" stroke="black" d="M150.78,-301.47C175.47,-305.19 205.08,-303.7 205.08,-296.99 205.08,-291.18 182.81,-289.28 160.8,-291.31"/>
<polygon fill="black" stroke="black" points="160.29,-287.84 150.78,-292.51 161.13,-294.79 160.29,-287.84"/>
<text text-anchor="middle" x="210.08" y="-293.29" font-family="Times New Roman,serif" font-size="14.00">Y</text>
</g>
<!-- 18&#45;&gt;18 -->
<g id="edge26" class="edge">
<title>18&#45;&gt;18</title>
<path fill="none" stroke="black" d="M150.45,-302.08C182.03,-308.12 223.08,-306.43 223.08,-296.99 223.08,-288.55 190.23,-286.31 160.7,-290.25"/>
<polygon fill="black" stroke="black" points="159.76,-286.86 150.45,-291.91 160.88,-293.77 159.76,-286.86"/>
<text text-anchor="middle" x="227.58" y="-293.29" font-family="Times New Roman,serif" font-size="14.00">Z</text>
</g>
</g>
</svg>
