<?xml version="1.0" encoding="UTF-8" standalone="no"?>
<!DOCTYPE svg PUBLIC "-//W3C//DTD SVG 1.1//EN"
 "http://www.w3.org/Graphics/SVG/1.1/DTD/svg11.dtd">
<!-- Generated by graphviz version 2.47.1 (20210417.1919)
 -->
<!-- Title: Gen683 Pages: 1 -->
<svg width="170pt" height="378pt"
 viewBox="0.00 0.00 169.89 377.60" xmlns="http://www.w3.org/2000/svg" xmlns:xlink="http://www.w3.org/1999/xlink">
<g id="graph0" class="graph" transform="scale(1 1) rotate(0) translate(4 373.6)">
<title>Gen683</title>
<polygon fill="white" stroke="transparent" points="-4,4 -4,-373.6 165.89,-373.6 165.89,4 -4,4"/>
<!-- 0 -->
<g id="node1" class="node">
<title>0</title>
<ellipse fill="none" stroke="black" cx="83.89" cy="-307" rx="18" ry="18"/>
<ellipse fill="none" stroke="black" cx="83.89" cy="-307" rx="22" ry="22"/>
<text text-anchor="middle" x="83.89" y="-303.3" font-family="Times New Roman,serif" font-size="14.00">0</text>
</g>
<!-- 1 -->
<g id="node3" class="node">
<title>1</title>
<ellipse fill="none" stroke="black" cx="83.89" cy="-212" rx="18" ry="18"/>
<ellipse fill="none" stroke="black" cx="83.89" cy="-212" rx="22" ry="22"/>
<text text-anchor="middle" x="83.89" y="-208.3" font-family="Times New Roman,serif" font-size="14.00">1</text>
</g>
<!-- 0&#45;&gt;1 -->
<g id="edge2" class="edge">
<title>0&#45;&gt;1</title>
<path fill="none" stroke="black" d="M74.28,-287.2C70.14,-276.9 66.69,-263.86 68.89,-252 69.5,-248.72 70.37,-245.36 71.4,-242.05"/>
<polygon fill="black" stroke="black" points="74.77,-243.03 74.81,-232.43 68.17,-240.69 74.77,-243.03"/>
<text text-anchor="middle" x="73.89" y="-255.8" font-family="Times New Roman,serif" font-size="14.00">A</text>
</g>
<!-- 0&#45;&gt;1 -->
<g id="edge3" class="edge">
<title>0&#45;&gt;1</title>
<path fill="none" stroke="black" d="M83.89,-284.9C83.89,-272.89 83.89,-257.62 83.89,-244.24"/>
<polygon fill="black" stroke="black" points="87.39,-244.02 83.89,-234.02 80.39,-244.02 87.39,-244.02"/>
<text text-anchor="middle" x="88.89" y="-255.8" font-family="Times New Roman,serif" font-size="14.00">X</text>
</g>
<!-- S -->
<g id="node2" class="node">
<title>S</title>
<ellipse fill="black" stroke="black" cx="83.89" cy="-367.8" rx="1.8" ry="1.8"/>
</g>
<!-- S&#45;&gt;0 -->
<g id="edge1" class="edge">
<title>S&#45;&gt;0</title>
<path fill="none" stroke="black" d="M83.89,-365.78C83.89,-362.41 83.89,-351.16 83.89,-339.48"/>
<polygon fill="black" stroke="black" points="87.39,-339.29 83.89,-329.29 80.39,-339.29 87.39,-339.29"/>
</g>
<!-- 1&#45;&gt;1 -->
<g id="edge4" class="edge">
<title>1&#45;&gt;1</title>
<path fill="none" stroke="black" d="M105.69,-216.25C115.45,-216.65 123.89,-215.23 123.89,-212 123.89,-209.98 120.59,-208.67 115.74,-208.07"/>
<polygon fill="black" stroke="black" points="115.8,-204.57 105.69,-207.75 115.58,-211.56 115.8,-204.57"/>
<text text-anchor="middle" x="128.89" y="-208.3" font-family="Times New Roman,serif" font-size="14.00">A</text>
</g>
<!-- 1&#45;&gt;1 -->
<g id="edge6" class="edge">
<title>1&#45;&gt;1</title>
<path fill="none" stroke="black" d="M104.7,-219.2C122.77,-222.49 141.89,-220.09 141.89,-212 141.89,-205.43 129.27,-202.61 114.84,-203.55"/>
<polygon fill="black" stroke="black" points="114.2,-200.1 104.7,-204.8 115.05,-207.05 114.2,-200.1"/>
<text text-anchor="middle" x="146.89" y="-208.3" font-family="Times New Roman,serif" font-size="14.00">X</text>
</g>
<!-- 4 -->
<g id="node6" class="node">
<title>4</title>
<ellipse fill="none" stroke="black" cx="43.89" cy="-117" rx="18" ry="18"/>
<ellipse fill="none" stroke="black" cx="43.89" cy="-117" rx="22" ry="22"/>
<text text-anchor="middle" x="43.89" y="-113.3" font-family="Times New Roman,serif" font-size="14.00">4</text>
</g>
<!-- 1&#45;&gt;4 -->
<g id="edge7" class="edge">
<title>1&#45;&gt;4</title>
<path fill="none" stroke="black" d="M64.32,-200.81C53.79,-194.16 41.79,-184.41 35.89,-172 32.31,-164.48 32.13,-155.76 33.44,-147.55"/>
<polygon fill="black" stroke="black" points="36.91,-148.08 35.75,-137.55 30.09,-146.5 36.91,-148.08"/>
<text text-anchor="middle" x="40.89" y="-160.8" font-family="Times New Roman,serif" font-size="14.00">Y</text>
</g>
<!-- 7 -->
<g id="node7" class="node">
<title>7</title>
<ellipse fill="none" stroke="black" cx="105.89" cy="-117" rx="18" ry="18"/>
<ellipse fill="none" stroke="black" cx="105.89" cy="-117" rx="22" ry="22"/>
<text text-anchor="middle" x="105.89" y="-113.3" font-family="Times New Roman,serif" font-size="14.00">7</text>
</g>
<!-- 1&#45;&gt;7 -->
<g id="edge5" class="edge">
<title>1&#45;&gt;7</title>
<path fill="none" stroke="black" d="M88.77,-190.36C91.68,-178.08 95.42,-162.27 98.66,-148.56"/>
<polygon fill="black" stroke="black" points="102.12,-149.12 101.02,-138.58 95.31,-147.51 102.12,-149.12"/>
<text text-anchor="middle" x="100.89" y="-160.8" font-family="Times New Roman,serif" font-size="14.00">B</text>
</g>
<!-- 2 -->
<g id="node4" class="node">
<title>2</title>
<ellipse fill="none" stroke="black" cx="34.89" cy="-22" rx="18" ry="18"/>
<ellipse fill="none" stroke="black" cx="34.89" cy="-22" rx="22" ry="22"/>
<text text-anchor="middle" x="34.89" y="-18.3" font-family="Times New Roman,serif" font-size="14.00">2</text>
</g>
<!-- 2&#45;&gt;1 -->
<g id="edge8" class="edge">
<title>2&#45;&gt;1</title>
<path fill="none" stroke="black" d="M23.6,-40.89C10.6,-63.86 -7.6,-104.82 3.89,-139 12.37,-164.23 36.18,-183.67 55.63,-195.96"/>
<polygon fill="black" stroke="black" points="54.09,-199.12 64.47,-201.25 57.69,-193.11 54.09,-199.12"/>
<text text-anchor="middle" x="8.39" y="-113.3" font-family="Times New Roman,serif" font-size="14.00">Z</text>
</g>
<!-- 3 -->
<g id="node5" class="node">
<title>3</title>
<ellipse fill="none" stroke="black" cx="120.89" cy="-22" rx="18" ry="18"/>
<ellipse fill="none" stroke="black" cx="120.89" cy="-22" rx="22" ry="22"/>
<text text-anchor="middle" x="120.89" y="-18.3" font-family="Times New Roman,serif" font-size="14.00">3</text>
</g>
<!-- 3&#45;&gt;1 -->
<g id="edge9" class="edge">
<title>3&#45;&gt;1</title>
<path fill="none" stroke="black" d="M127.32,-43.16C133.86,-66.33 142.33,-105.49 136.89,-139 134.41,-154.26 134.26,-159 125.89,-172 121.34,-179.06 115.23,-185.7 109.08,-191.43"/>
<polygon fill="black" stroke="black" points="106.6,-188.95 101.38,-198.17 111.21,-194.22 106.6,-188.95"/>
<text text-anchor="middle" x="142.89" y="-113.3" font-family="Times New Roman,serif" font-size="14.00">C</text>
</g>
<!-- 4&#45;&gt;1 -->
<g id="edge11" class="edge">
<title>4&#45;&gt;1</title>
<path fill="none" stroke="black" d="M52.22,-137.38C57.74,-150.21 65.09,-167.28 71.31,-181.76"/>
<polygon fill="black" stroke="black" points="68.24,-183.47 75.41,-191.28 74.67,-180.71 68.24,-183.47"/>
<text text-anchor="middle" x="71.39" y="-160.8" font-family="Times New Roman,serif" font-size="14.00">Z</text>
</g>
<!-- 4&#45;&gt;2 -->
<g id="edge10" class="edge">
<title>4&#45;&gt;2</title>
<path fill="none" stroke="black" d="M41.85,-94.9C40.68,-82.89 39.21,-67.62 37.91,-54.24"/>
<polygon fill="black" stroke="black" points="41.37,-53.64 36.92,-44.02 34.4,-54.31 41.37,-53.64"/>
<text text-anchor="middle" x="45.89" y="-65.8" font-family="Times New Roman,serif" font-size="14.00">A</text>
</g>
<!-- 7&#45;&gt;1 -->
<g id="edge12" class="edge">
<title>7&#45;&gt;1</title>
<path fill="none" stroke="black" d="M110.88,-138.64C112.49,-148.87 113.13,-161.29 109.89,-172 108.43,-176.81 106.17,-181.57 103.56,-186.02"/>
<polygon fill="black" stroke="black" points="100.46,-184.36 97.91,-194.65 106.32,-188.2 100.46,-184.36"/>
<text text-anchor="middle" x="116.89" y="-160.8" font-family="Times New Roman,serif" font-size="14.00">C</text>
</g>
<!-- 7&#45;&gt;3 -->
<g id="edge13" class="edge">
<title>7&#45;&gt;3</title>
<path fill="none" stroke="black" d="M109.29,-94.9C111.23,-82.89 113.69,-67.62 115.85,-54.24"/>
<polygon fill="black" stroke="black" points="119.36,-54.45 117.5,-44.02 112.45,-53.33 119.36,-54.45"/>
<text text-anchor="middle" x="118.89" y="-65.8" font-family="Times New Roman,serif" font-size="14.00">X</text>
</g>
</g>
</svg>
