<?xml version="1.0" encoding="UTF-8" standalone="no"?>
<!DOCTYPE svg PUBLIC "-//W3C//DTD SVG 1.1//EN"
 "http://www.w3.org/Graphics/SVG/1.1/DTD/svg11.dtd">
<!-- Generated by graphviz version 2.47.1 (20210417.1919)
 -->
<!-- Title: Gen253 Pages: 1 -->
<svg width="133pt" height="465pt"
 viewBox="0.00 0.00 133.00 464.60" xmlns="http://www.w3.org/2000/svg" xmlns:xlink="http://www.w3.org/1999/xlink">
<g id="graph0" class="graph" transform="scale(1 1) rotate(0) translate(4 460.6)">
<title>Gen253</title>
<polygon fill="white" stroke="transparent" points="-4,4 -4,-460.6 129,-460.6 129,4 -4,4"/>
<!-- 0 -->
<g id="node1" class="node">
<title>0</title>
<ellipse fill="none" stroke="black" cx="102" cy="-394" rx="18" ry="18"/>
<ellipse fill="none" stroke="black" cx="102" cy="-394" rx="22" ry="22"/>
<text text-anchor="middle" x="102" y="-390.3" font-family="Times New Roman,serif" font-size="14.00">0</text>
</g>
<!-- 1 -->
<g id="node3" class="node">
<title>1</title>
<ellipse fill="none" stroke="black" cx="61" cy="-299" rx="18" ry="18"/>
<ellipse fill="none" stroke="black" cx="61" cy="-299" rx="22" ry="22"/>
<text text-anchor="middle" x="61" y="-295.3" font-family="Times New Roman,serif" font-size="14.00">1</text>
</g>
<!-- 0&#45;&gt;1 -->
<g id="edge2" class="edge">
<title>0&#45;&gt;1</title>
<path fill="none" stroke="black" d="M84.69,-380.12C76.91,-373.3 68.49,-364.21 64,-354 60.91,-346.97 59.49,-338.91 58.99,-331.21"/>
<polygon fill="black" stroke="black" points="62.48,-330.99 58.8,-321.05 55.48,-331.12 62.48,-330.99"/>
<text text-anchor="middle" x="67.5" y="-342.8" font-family="Times New Roman,serif" font-size="14.00">c</text>
</g>
<!-- 2 -->
<g id="node4" class="node">
<title>2</title>
<ellipse fill="none" stroke="black" cx="100" cy="-109" rx="18" ry="18"/>
<ellipse fill="none" stroke="black" cx="100" cy="-109" rx="22" ry="22"/>
<text text-anchor="middle" x="100" y="-105.3" font-family="Times New Roman,serif" font-size="14.00">2</text>
</g>
<!-- 0&#45;&gt;2 -->
<g id="edge3" class="edge">
<title>0&#45;&gt;2</title>
<path fill="none" stroke="black" d="M101.85,-371.73C101.5,-322.23 100.63,-199.16 100.22,-141.17"/>
<polygon fill="black" stroke="black" points="103.72,-141.11 100.15,-131.13 96.72,-141.16 103.72,-141.11"/>
<text text-anchor="middle" x="104" y="-247.8" font-family="Times New Roman,serif" font-size="14.00">l</text>
</g>
<!-- S -->
<g id="node2" class="node">
<title>S</title>
<ellipse fill="black" stroke="black" cx="102" cy="-454.8" rx="1.8" ry="1.8"/>
</g>
<!-- S&#45;&gt;0 -->
<g id="edge1" class="edge">
<title>S&#45;&gt;0</title>
<path fill="none" stroke="black" d="M102,-452.78C102,-449.41 102,-438.16 102,-426.48"/>
<polygon fill="black" stroke="black" points="105.5,-426.29 102,-416.29 98.5,-426.29 105.5,-426.29"/>
</g>
<!-- 1&#45;&gt;0 -->
<g id="edge5" class="edge">
<title>1&#45;&gt;0</title>
<path fill="none" stroke="black" d="M69.54,-319.38C75.2,-332.21 82.73,-349.28 89.11,-363.76"/>
<polygon fill="black" stroke="black" points="86.07,-365.54 93.3,-373.28 92.47,-362.71 86.07,-365.54"/>
<text text-anchor="middle" x="88" y="-342.8" font-family="Times New Roman,serif" font-size="14.00">o</text>
</g>
<!-- 3 -->
<g id="node5" class="node">
<title>3</title>
<ellipse fill="none" stroke="black" cx="61" cy="-204" rx="18" ry="18"/>
<ellipse fill="none" stroke="black" cx="61" cy="-204" rx="22" ry="22"/>
<text text-anchor="middle" x="61" y="-200.3" font-family="Times New Roman,serif" font-size="14.00">3</text>
</g>
<!-- 1&#45;&gt;3 -->
<g id="edge4" class="edge">
<title>1&#45;&gt;3</title>
<path fill="none" stroke="black" d="M54.25,-277.83C51.64,-267.72 49.58,-255.26 51,-244 51.36,-241.14 51.87,-238.19 52.46,-235.25"/>
<polygon fill="black" stroke="black" points="55.88,-235.99 54.73,-225.46 49.06,-234.41 55.88,-235.99"/>
<text text-anchor="middle" x="53" y="-247.8" font-family="Times New Roman,serif" font-size="14.00">l</text>
</g>
<!-- 2&#45;&gt;0 -->
<g id="edge7" class="edge">
<title>2&#45;&gt;0</title>
<path fill="none" stroke="black" d="M109.05,-129.44C111.47,-135.56 113.76,-142.44 115,-149 119.64,-173.48 119.76,-332.42 116,-354 115.43,-357.26 114.62,-360.61 113.66,-363.91"/>
<polygon fill="black" stroke="black" points="110.3,-362.92 110.48,-373.52 116.94,-365.13 110.3,-362.92"/>
<text text-anchor="middle" x="121.5" y="-247.8" font-family="Times New Roman,serif" font-size="14.00">u</text>
</g>
<!-- 2&#45;&gt;3 -->
<g id="edge6" class="edge">
<title>2&#45;&gt;3</title>
<path fill="none" stroke="black" d="M91.74,-129.69C86.37,-142.51 79.26,-159.45 73.24,-173.82"/>
<polygon fill="black" stroke="black" points="69.91,-172.7 69.27,-183.28 76.37,-175.41 69.91,-172.7"/>
<text text-anchor="middle" x="86.5" y="-152.8" font-family="Times New Roman,serif" font-size="14.00">c</text>
</g>
<!-- 3&#45;&gt;1 -->
<g id="edge10" class="edge">
<title>3&#45;&gt;1</title>
<path fill="none" stroke="black" d="M61,-226.02C61,-238.01 61,-253.28 61,-266.66"/>
<polygon fill="black" stroke="black" points="57.5,-266.9 61,-276.9 64.5,-266.9 57.5,-266.9"/>
<text text-anchor="middle" x="64.5" y="-247.8" font-family="Times New Roman,serif" font-size="14.00">u</text>
</g>
<!-- 3&#45;&gt;2 -->
<g id="edge9" class="edge">
<title>3&#45;&gt;2</title>
<path fill="none" stroke="black" d="M60.51,-181.76C60.98,-171.5 62.6,-159.22 67,-149 69.58,-143.01 73.4,-137.25 77.53,-132.07"/>
<polygon fill="black" stroke="black" points="80.22,-134.31 84.15,-124.48 74.94,-129.71 80.22,-134.31"/>
<text text-anchor="middle" x="71" y="-152.8" font-family="Times New Roman,serif" font-size="14.00">o</text>
</g>
<!-- 5 -->
<g id="node6" class="node">
<title>5</title>
<ellipse fill="none" stroke="black" cx="22" cy="-109" rx="18" ry="18"/>
<ellipse fill="none" stroke="black" cx="22" cy="-109" rx="22" ry="22"/>
<text text-anchor="middle" x="22" y="-105.3" font-family="Times New Roman,serif" font-size="14.00">5</text>
</g>
<!-- 3&#45;&gt;5 -->
<g id="edge8" class="edge">
<title>3&#45;&gt;5</title>
<path fill="none" stroke="black" d="M47.38,-186.38C42.53,-179.76 37.43,-171.85 34,-164 30.82,-156.72 28.44,-148.5 26.68,-140.72"/>
<polygon fill="black" stroke="black" points="30.09,-139.96 24.7,-130.85 23.23,-141.34 30.09,-139.96"/>
<text text-anchor="middle" x="37.5" y="-152.8" font-family="Times New Roman,serif" font-size="14.00">a</text>
</g>
<!-- 5&#45;&gt;1 -->
<g id="edge12" class="edge">
<title>5&#45;&gt;1</title>
<path fill="none" stroke="black" d="M19.25,-130.91C16.83,-154.43 14.82,-193.58 23,-226 27.1,-242.26 35.56,-258.91 43.46,-272.1"/>
<polygon fill="black" stroke="black" points="40.52,-273.99 48.78,-280.63 46.46,-270.29 40.52,-273.99"/>
<text text-anchor="middle" x="26.5" y="-200.3" font-family="Times New Roman,serif" font-size="14.00">u</text>
</g>
<!-- 6 -->
<g id="node7" class="node">
<title>6</title>
<ellipse fill="none" stroke="black" cx="22" cy="-18" rx="18" ry="18"/>
<text text-anchor="middle" x="22" y="-14.3" font-family="Times New Roman,serif" font-size="14.00">6</text>
</g>
<!-- 5&#45;&gt;6 -->
<g id="edge11" class="edge">
<title>5&#45;&gt;6</title>
<path fill="none" stroke="black" d="M22,-86.91C22,-74.78 22,-59.41 22,-46.36"/>
<polygon fill="black" stroke="black" points="25.5,-46.07 22,-36.07 18.5,-46.07 25.5,-46.07"/>
<text text-anchor="middle" x="26" y="-57.8" font-family="Times New Roman,serif" font-size="14.00">o</text>
</g>
</g>
</svg>
