<?xml version="1.0" encoding="UTF-8" standalone="no"?>
<!DOCTYPE svg PUBLIC "-//W3C//DTD SVG 1.1//EN"
 "http://www.w3.org/Graphics/SVG/1.1/DTD/svg11.dtd">
<!-- Generated by graphviz version 2.47.1 (20210417.1919)
 -->
<!-- Title: Gen108 Pages: 1 -->
<svg width="214pt" height="473pt"
 viewBox="0.00 0.00 214.00 472.60" xmlns="http://www.w3.org/2000/svg" xmlns:xlink="http://www.w3.org/1999/xlink">
<g id="graph0" class="graph" transform="scale(1 1) rotate(0) translate(4 468.6)">
<title>Gen108</title>
<polygon fill="white" stroke="transparent" points="-4,4 -4,-468.6 210,-468.6 210,4 -4,4"/>
<!-- 0 -->
<g id="node1" class="node">
<title>0</title>
<ellipse fill="none" stroke="black" cx="144" cy="-402" rx="18" ry="18"/>
<ellipse fill="none" stroke="black" cx="144" cy="-402" rx="22" ry="22"/>
<text text-anchor="middle" x="144" y="-398.3" font-family="Times New Roman,serif" font-size="14.00">0</text>
</g>
<!-- 2 -->
<g id="node4" class="node">
<title>2</title>
<ellipse fill="none" stroke="black" cx="105" cy="-307" rx="18" ry="18"/>
<ellipse fill="none" stroke="black" cx="105" cy="-307" rx="22" ry="22"/>
<text text-anchor="middle" x="105" y="-303.3" font-family="Times New Roman,serif" font-size="14.00">2</text>
</g>
<!-- 0&#45;&gt;2 -->
<g id="edge3" class="edge">
<title>0&#45;&gt;2</title>
<path fill="none" stroke="black" d="M128.38,-386.04C122.27,-379.29 115.82,-370.84 112,-362 108.96,-354.96 107.14,-346.96 106.08,-339.31"/>
<polygon fill="black" stroke="black" points="109.55,-338.83 105.05,-329.23 102.58,-339.53 109.55,-338.83"/>
<text text-anchor="middle" x="114" y="-350.8" font-family="Times New Roman,serif" font-size="14.00">l</text>
</g>
<!-- 5 -->
<g id="node6" class="node">
<title>5</title>
<ellipse fill="none" stroke="black" cx="123" cy="-22" rx="18" ry="18"/>
<ellipse fill="none" stroke="black" cx="123" cy="-22" rx="22" ry="22"/>
<text text-anchor="middle" x="123" y="-18.3" font-family="Times New Roman,serif" font-size="14.00">5</text>
</g>
<!-- 0&#45;&gt;5 -->
<g id="edge2" class="edge">
<title>0&#45;&gt;5</title>
<path fill="none" stroke="black" d="M147.91,-380.03C151.07,-361.24 155,-332.88 155,-308 155,-308 155,-308 155,-116 155,-93.24 146.32,-68.96 138,-50.92"/>
<polygon fill="black" stroke="black" points="140.99,-49.06 133.48,-41.59 134.69,-52.12 140.99,-49.06"/>
<text text-anchor="middle" x="158.5" y="-208.3" font-family="Times New Roman,serif" font-size="14.00">c</text>
</g>
<!-- S -->
<g id="node2" class="node">
<title>S</title>
<ellipse fill="black" stroke="black" cx="144" cy="-462.8" rx="1.8" ry="1.8"/>
</g>
<!-- S&#45;&gt;0 -->
<g id="edge1" class="edge">
<title>S&#45;&gt;0</title>
<path fill="none" stroke="black" d="M144,-460.78C144,-457.41 144,-446.16 144,-434.48"/>
<polygon fill="black" stroke="black" points="147.5,-434.29 144,-424.29 140.5,-434.29 147.5,-434.29"/>
</g>
<!-- 1 -->
<g id="node3" class="node">
<title>1</title>
<ellipse fill="none" stroke="black" cx="80" cy="-212" rx="18" ry="18"/>
<ellipse fill="none" stroke="black" cx="80" cy="-212" rx="22" ry="22"/>
<text text-anchor="middle" x="80" y="-208.3" font-family="Times New Roman,serif" font-size="14.00">1</text>
</g>
<!-- 1&#45;&gt;2 -->
<g id="edge5" class="edge">
<title>1&#45;&gt;2</title>
<path fill="none" stroke="black" d="M85.53,-233.58C88.83,-245.85 93.08,-261.66 96.77,-275.37"/>
<polygon fill="black" stroke="black" points="93.48,-276.61 99.45,-285.36 100.24,-274.79 93.48,-276.61"/>
<text text-anchor="middle" x="98" y="-255.8" font-family="Times New Roman,serif" font-size="14.00">o</text>
</g>
<!-- 4 -->
<g id="node5" class="node">
<title>4</title>
<ellipse fill="none" stroke="black" cx="22" cy="-117" rx="18" ry="18"/>
<ellipse fill="none" stroke="black" cx="22" cy="-117" rx="22" ry="22"/>
<text text-anchor="middle" x="22" y="-113.3" font-family="Times New Roman,serif" font-size="14.00">4</text>
</g>
<!-- 1&#45;&gt;4 -->
<g id="edge4" class="edge">
<title>1&#45;&gt;4</title>
<path fill="none" stroke="black" d="M68.54,-192.63C59.99,-178.91 48.17,-159.96 38.58,-144.59"/>
<polygon fill="black" stroke="black" points="41.5,-142.65 33.24,-136.02 35.56,-146.36 41.5,-142.65"/>
<text text-anchor="middle" x="58.5" y="-160.8" font-family="Times New Roman,serif" font-size="14.00">a</text>
</g>
<!-- 1&#45;&gt;5 -->
<g id="edge6" class="edge">
<title>1&#45;&gt;5</title>
<path fill="none" stroke="black" d="M80.89,-189.74C82.26,-166.24 85.67,-127.42 94,-95 97.79,-80.23 103.9,-64.45 109.53,-51.44"/>
<polygon fill="black" stroke="black" points="112.83,-52.65 113.7,-42.09 106.43,-49.8 112.83,-52.65"/>
<text text-anchor="middle" x="97.5" y="-113.3" font-family="Times New Roman,serif" font-size="14.00">u</text>
</g>
<!-- 2&#45;&gt;0 -->
<g id="edge8" class="edge">
<title>2&#45;&gt;0</title>
<path fill="none" stroke="black" d="M113.26,-327.69C118.63,-340.51 125.74,-357.45 131.76,-371.82"/>
<polygon fill="black" stroke="black" points="128.63,-373.41 135.73,-381.28 135.09,-370.7 128.63,-373.41"/>
<text text-anchor="middle" x="130.5" y="-350.8" font-family="Times New Roman,serif" font-size="14.00">u</text>
</g>
<!-- 2&#45;&gt;1 -->
<g id="edge7" class="edge">
<title>2&#45;&gt;1</title>
<path fill="none" stroke="black" d="M91.87,-289.09C87.55,-282.55 83.28,-274.78 81,-267 78.86,-259.7 77.98,-251.6 77.77,-243.95"/>
<polygon fill="black" stroke="black" points="81.27,-243.93 77.85,-233.9 74.27,-243.87 81.27,-243.93"/>
<text text-anchor="middle" x="84.5" y="-255.8" font-family="Times New Roman,serif" font-size="14.00">c</text>
</g>
<!-- 4&#45;&gt;5 -->
<g id="edge9" class="edge">
<title>4&#45;&gt;5</title>
<path fill="none" stroke="black" d="M32.12,-97.27C38.76,-86.14 48.2,-72.24 59,-62 69.36,-52.18 82.59,-43.62 94.33,-37.04"/>
<polygon fill="black" stroke="black" points="96.19,-40.01 103.34,-32.2 92.87,-33.84 96.19,-40.01"/>
<text text-anchor="middle" x="62.5" y="-65.8" font-family="Times New Roman,serif" font-size="14.00">u</text>
</g>
<!-- 5&#45;&gt;0 -->
<g id="edge11" class="edge">
<title>5&#45;&gt;0</title>
<path fill="none" stroke="black" d="M141.54,-34.67C163.75,-50.26 198,-80.12 198,-116 198,-308 198,-308 198,-308 198,-334.88 180.93,-360.93 165.98,-378.59"/>
<polygon fill="black" stroke="black" points="163.35,-376.29 159.33,-386.09 168.58,-380.93 163.35,-376.29"/>
<text text-anchor="middle" x="202" y="-208.3" font-family="Times New Roman,serif" font-size="14.00">o</text>
</g>
<!-- 5&#45;&gt;1 -->
<g id="edge10" class="edge">
<title>5&#45;&gt;1</title>
<path fill="none" stroke="black" d="M120.92,-44.09C117.68,-73.3 110.38,-127.49 97,-172 95.97,-175.43 94.72,-178.96 93.37,-182.42"/>
<polygon fill="black" stroke="black" points="90.04,-181.33 89.41,-191.9 96.49,-184.03 90.04,-181.33"/>
<text text-anchor="middle" x="116" y="-113.3" font-family="Times New Roman,serif" font-size="14.00">l</text>
</g>
</g>
</svg>
