<?xml version="1.0" encoding="UTF-8" standalone="no"?>
<!DOCTYPE svg PUBLIC "-//W3C//DTD SVG 1.1//EN"
 "http://www.w3.org/Graphics/SVG/1.1/DTD/svg11.dtd">
<!-- Generated by graphviz version 2.47.1 (20210417.1919)
 -->
<!-- Title: Gen597 Pages: 1 -->
<svg width="209pt" height="666pt"
 viewBox="0.00 0.00 209.00 665.60" xmlns="http://www.w3.org/2000/svg" xmlns:xlink="http://www.w3.org/1999/xlink">
<g id="graph0" class="graph" transform="scale(1 1) rotate(0) translate(4 661.6)">
<title>Gen597</title>
<polygon fill="white" stroke="transparent" points="-4,4 -4,-661.6 205,-661.6 205,4 -4,4"/>
<!-- 0 -->
<g id="node1" class="node">
<title>0</title>
<ellipse fill="none" stroke="black" cx="133" cy="-595" rx="18" ry="18"/>
<ellipse fill="none" stroke="black" cx="133" cy="-595" rx="22" ry="22"/>
<text text-anchor="middle" x="133" y="-591.3" font-family="Times New Roman,serif" font-size="14.00">0</text>
</g>
<!-- 1 -->
<g id="node3" class="node">
<title>1</title>
<ellipse fill="none" stroke="black" cx="49" cy="-500" rx="18" ry="18"/>
<ellipse fill="none" stroke="black" cx="49" cy="-500" rx="22" ry="22"/>
<text text-anchor="middle" x="49" y="-496.3" font-family="Times New Roman,serif" font-size="14.00">1</text>
</g>
<!-- 0&#45;&gt;1 -->
<g id="edge2" class="edge">
<title>0&#45;&gt;1</title>
<path fill="none" stroke="black" d="M115.95,-580.32C107.46,-573.16 97.27,-564.03 89,-555 81.12,-546.39 73.29,-536.27 66.67,-527.12"/>
<polygon fill="black" stroke="black" points="69.37,-524.88 60.74,-518.74 63.66,-528.92 69.37,-524.88"/>
<text text-anchor="middle" x="94" y="-543.8" font-family="Times New Roman,serif" font-size="14.00">A</text>
</g>
<!-- 2 -->
<g id="node4" class="node">
<title>2</title>
<ellipse fill="none" stroke="black" cx="142" cy="-215" rx="18" ry="18"/>
<ellipse fill="none" stroke="black" cx="142" cy="-215" rx="22" ry="22"/>
<text text-anchor="middle" x="142" y="-211.3" font-family="Times New Roman,serif" font-size="14.00">2</text>
</g>
<!-- 0&#45;&gt;2 -->
<g id="edge3" class="edge">
<title>0&#45;&gt;2</title>
<path fill="none" stroke="black" d="M140.23,-573.97C146.3,-555.33 154,-526.65 154,-501 154,-501 154,-501 154,-309 154,-288.18 151,-264.95 148.01,-246.91"/>
<polygon fill="black" stroke="black" points="151.44,-246.2 146.26,-236.95 144.54,-247.4 151.44,-246.2"/>
<text text-anchor="middle" x="159" y="-401.3" font-family="Times New Roman,serif" font-size="14.00">X</text>
</g>
<!-- S -->
<g id="node2" class="node">
<title>S</title>
<ellipse fill="black" stroke="black" cx="133" cy="-655.8" rx="1.8" ry="1.8"/>
</g>
<!-- S&#45;&gt;0 -->
<g id="edge1" class="edge">
<title>S&#45;&gt;0</title>
<path fill="none" stroke="black" d="M133,-653.78C133,-650.4 133,-639.16 133,-627.48"/>
<polygon fill="black" stroke="black" points="136.5,-627.28 133,-617.28 129.5,-627.28 136.5,-627.28"/>
</g>
<!-- 3 -->
<g id="node5" class="node">
<title>3</title>
<ellipse fill="none" stroke="black" cx="96" cy="-405" rx="18" ry="18"/>
<ellipse fill="none" stroke="black" cx="96" cy="-405" rx="22" ry="22"/>
<text text-anchor="middle" x="96" y="-401.3" font-family="Times New Roman,serif" font-size="14.00">3</text>
</g>
<!-- 1&#45;&gt;3 -->
<g id="edge4" class="edge">
<title>1&#45;&gt;3</title>
<path fill="none" stroke="black" d="M58.74,-479.73C65.4,-466.55 74.34,-448.86 81.79,-434.11"/>
<polygon fill="black" stroke="black" points="85.05,-435.43 86.43,-424.92 78.8,-432.27 85.05,-435.43"/>
<text text-anchor="middle" x="81" y="-448.8" font-family="Times New Roman,serif" font-size="14.00">B</text>
</g>
<!-- 4 -->
<g id="node6" class="node">
<title>4</title>
<ellipse fill="none" stroke="black" cx="92" cy="-120" rx="18" ry="18"/>
<ellipse fill="none" stroke="black" cx="92" cy="-120" rx="22" ry="22"/>
<text text-anchor="middle" x="92" y="-116.3" font-family="Times New Roman,serif" font-size="14.00">4</text>
</g>
<!-- 1&#45;&gt;4 -->
<g id="edge5" class="edge">
<title>1&#45;&gt;4</title>
<path fill="none" stroke="black" d="M47.93,-477.95C47.07,-459.1 46,-430.71 46,-406 46,-406 46,-406 46,-214 46,-188.76 59.77,-163.3 72.25,-145.41"/>
<polygon fill="black" stroke="black" points="75.12,-147.41 78.2,-137.27 69.47,-143.28 75.12,-147.41"/>
<text text-anchor="middle" x="51" y="-306.3" font-family="Times New Roman,serif" font-size="14.00">X</text>
</g>
<!-- 2&#45;&gt;4 -->
<g id="edge6" class="edge">
<title>2&#45;&gt;4</title>
<path fill="none" stroke="black" d="M131.88,-195.18C124.7,-181.81 114.94,-163.66 106.87,-148.65"/>
<polygon fill="black" stroke="black" points="109.92,-146.94 102.1,-139.79 103.76,-150.25 109.92,-146.94"/>
<text text-anchor="middle" x="125" y="-163.8" font-family="Times New Roman,serif" font-size="14.00">A</text>
</g>
<!-- 5 -->
<g id="node7" class="node">
<title>5</title>
<ellipse fill="none" stroke="black" cx="158" cy="-120" rx="18" ry="18"/>
<ellipse fill="none" stroke="black" cx="158" cy="-120" rx="22" ry="22"/>
<text text-anchor="middle" x="158" y="-116.3" font-family="Times New Roman,serif" font-size="14.00">5</text>
</g>
<!-- 2&#45;&gt;5 -->
<g id="edge7" class="edge">
<title>2&#45;&gt;5</title>
<path fill="none" stroke="black" d="M145.63,-192.89C147.7,-180.88 150.32,-165.61 152.63,-152.24"/>
<polygon fill="black" stroke="black" points="156.14,-152.46 154.38,-142.02 149.24,-151.28 156.14,-152.46"/>
<text text-anchor="middle" x="155" y="-163.8" font-family="Times New Roman,serif" font-size="14.00">Y</text>
</g>
<!-- 3&#45;&gt;0 -->
<g id="edge8" class="edge">
<title>3&#45;&gt;0</title>
<path fill="none" stroke="black" d="M100.06,-426.64C106.56,-459.64 119.31,-524.46 126.9,-563.02"/>
<polygon fill="black" stroke="black" points="123.53,-564.02 128.9,-573.16 130.4,-562.67 123.53,-564.02"/>
<text text-anchor="middle" x="124" y="-496.3" font-family="Times New Roman,serif" font-size="14.00">C</text>
</g>
<!-- 7 -->
<g id="node8" class="node">
<title>7</title>
<ellipse fill="none" stroke="black" cx="96" cy="-310" rx="18" ry="18"/>
<ellipse fill="none" stroke="black" cx="96" cy="-310" rx="22" ry="22"/>
<text text-anchor="middle" x="96" y="-306.3" font-family="Times New Roman,serif" font-size="14.00">7</text>
</g>
<!-- 3&#45;&gt;7 -->
<g id="edge9" class="edge">
<title>3&#45;&gt;7</title>
<path fill="none" stroke="black" d="M96,-382.89C96,-370.88 96,-355.61 96,-342.24"/>
<polygon fill="black" stroke="black" points="99.5,-342.02 96,-332.02 92.5,-342.02 99.5,-342.02"/>
<text text-anchor="middle" x="101" y="-353.8" font-family="Times New Roman,serif" font-size="14.00">X</text>
</g>
<!-- 4&#45;&gt;7 -->
<g id="edge10" class="edge">
<title>4&#45;&gt;7</title>
<path fill="none" stroke="black" d="M92.45,-142.12C93.15,-175.16 94.52,-239.27 95.33,-277.69"/>
<polygon fill="black" stroke="black" points="91.84,-277.87 95.55,-287.8 98.84,-277.72 91.84,-277.87"/>
<text text-anchor="middle" x="100" y="-211.3" font-family="Times New Roman,serif" font-size="14.00">B</text>
</g>
<!-- 19 -->
<g id="node9" class="node">
<title>19</title>
<ellipse fill="none" stroke="black" cx="92" cy="-23.5" rx="19.5" ry="19.5"/>
<ellipse fill="none" stroke="black" cx="92" cy="-23.5" rx="23.5" ry="23.5"/>
<text text-anchor="middle" x="92" y="-19.8" font-family="Times New Roman,serif" font-size="14.00">19</text>
</g>
<!-- 4&#45;&gt;19 -->
<g id="edge11" class="edge">
<title>4&#45;&gt;19</title>
<path fill="none" stroke="black" d="M92,-97.55C92,-85.69 92,-70.71 92,-57.4"/>
<polygon fill="black" stroke="black" points="95.5,-57.17 92,-47.17 88.5,-57.17 95.5,-57.17"/>
<text text-anchor="middle" x="97" y="-68.8" font-family="Times New Roman,serif" font-size="14.00">Y</text>
</g>
<!-- 5&#45;&gt;0 -->
<g id="edge13" class="edge">
<title>5&#45;&gt;0</title>
<path fill="none" stroke="black" d="M168.94,-139.16C178.88,-157.41 192,-186.66 192,-214 192,-501 192,-501 192,-501 192,-528.85 172.89,-555.12 156.42,-572.59"/>
<polygon fill="black" stroke="black" points="153.67,-570.4 149.12,-579.97 158.64,-575.32 153.67,-570.4"/>
<text text-anchor="middle" x="196.5" y="-353.8" font-family="Times New Roman,serif" font-size="14.00">Z</text>
</g>
<!-- 5&#45;&gt;19 -->
<g id="edge12" class="edge">
<title>5&#45;&gt;19</title>
<path fill="none" stroke="black" d="M145.59,-101.22C135.82,-87.24 122.05,-67.52 110.91,-51.57"/>
<polygon fill="black" stroke="black" points="113.63,-49.36 105.04,-43.16 107.89,-53.37 113.63,-49.36"/>
<text text-anchor="middle" x="134" y="-68.8" font-family="Times New Roman,serif" font-size="14.00">A</text>
</g>
<!-- 7&#45;&gt;2 -->
<g id="edge14" class="edge">
<title>7&#45;&gt;2</title>
<path fill="none" stroke="black" d="M105.53,-289.73C112.05,-276.55 120.8,-258.86 128.09,-244.11"/>
<polygon fill="black" stroke="black" points="131.34,-245.44 132.64,-234.92 125.07,-242.34 131.34,-245.44"/>
<text text-anchor="middle" x="127" y="-258.8" font-family="Times New Roman,serif" font-size="14.00">C</text>
</g>
<!-- 19&#45;&gt;1 -->
<g id="edge15" class="edge">
<title>19&#45;&gt;1</title>
<path fill="none" stroke="black" d="M71.12,-34.36C43.98,-48.81 0,-78.47 0,-119 0,-406 0,-406 0,-406 0,-431.72 14.85,-457.31 28.2,-475.11"/>
<polygon fill="black" stroke="black" points="25.63,-477.5 34.56,-483.19 31.13,-473.17 25.63,-477.5"/>
<text text-anchor="middle" x="4.5" y="-258.8" font-family="Times New Roman,serif" font-size="14.00">Z</text>
</g>
</g>
</svg>
