<?xml version="1.0" encoding="UTF-8" standalone="no"?>
<!DOCTYPE svg PUBLIC "-//W3C//DTD SVG 1.1//EN"
 "http://www.w3.org/Graphics/SVG/1.1/DTD/svg11.dtd">
<!-- Generated by graphviz version 2.47.1 (20210417.1919)
 -->
<!-- Title: Gen83 Pages: 1 -->
<svg width="112pt" height="267pt"
 viewBox="0.00 0.00 112.00 266.60" xmlns="http://www.w3.org/2000/svg" xmlns:xlink="http://www.w3.org/1999/xlink">
<g id="graph0" class="graph" transform="scale(1 1) rotate(0) translate(4 262.6)">
<title>Gen83</title>
<polygon fill="white" stroke="transparent" points="-4,4 -4,-262.6 108,-262.6 108,4 -4,4"/>
<!-- 0 -->
<g id="node1" class="node">
<title>0</title>
<ellipse fill="none" stroke="black" cx="61" cy="-200" rx="18" ry="18"/>
<text text-anchor="middle" x="61" y="-196.3" font-family="Times New Roman,serif" font-size="14.00">0</text>
</g>
<!-- 0&#45;&gt;0 -->
<g id="edge2" class="edge">
<title>0&#45;&gt;0</title>
<path fill="none" stroke="black" d="M78.04,-206.38C87.86,-207.68 97,-205.55 97,-200 97,-196.53 93.43,-194.4 88.35,-193.6"/>
<polygon fill="black" stroke="black" points="88.03,-190.1 78.04,-193.62 88.04,-197.1 88.03,-190.1"/>
<text text-anchor="middle" x="100.5" y="-196.3" font-family="Times New Roman,serif" font-size="14.00">0</text>
</g>
<!-- 3 -->
<g id="node4" class="node">
<title>3</title>
<ellipse fill="none" stroke="black" cx="18" cy="-113" rx="18" ry="18"/>
<text text-anchor="middle" x="18" y="-109.3" font-family="Times New Roman,serif" font-size="14.00">3</text>
</g>
<!-- 0&#45;&gt;3 -->
<g id="edge3" class="edge">
<title>0&#45;&gt;3</title>
<path fill="none" stroke="black" d="M45.77,-189.61C37.22,-183.46 27.25,-174.6 22,-164 18.55,-157.02 17.02,-148.83 16.49,-141.11"/>
<polygon fill="black" stroke="black" points="19.99,-140.97 16.3,-131.04 12.99,-141.1 19.99,-140.97"/>
<text text-anchor="middle" x="25.5" y="-152.8" font-family="Times New Roman,serif" font-size="14.00">1</text>
</g>
<!-- S -->
<g id="node2" class="node">
<title>S</title>
<ellipse fill="black" stroke="black" cx="61" cy="-256.8" rx="1.8" ry="1.8"/>
</g>
<!-- S&#45;&gt;0 -->
<g id="edge1" class="edge">
<title>S&#45;&gt;0</title>
<path fill="none" stroke="black" d="M61,-254.85C61,-251.49 61,-239.73 61,-228.05"/>
<polygon fill="black" stroke="black" points="64.5,-228.02 61,-218.02 57.5,-228.02 64.5,-228.02"/>
</g>
<!-- 2 -->
<g id="node3" class="node">
<title>2</title>
<ellipse fill="none" stroke="black" cx="72" cy="-22" rx="18" ry="18"/>
<ellipse fill="none" stroke="black" cx="72" cy="-22" rx="22" ry="22"/>
<text text-anchor="middle" x="72" y="-18.3" font-family="Times New Roman,serif" font-size="14.00">2</text>
</g>
<!-- 2&#45;&gt;0 -->
<g id="edge4" class="edge">
<title>2&#45;&gt;0</title>
<path fill="none" stroke="black" d="M70.68,-44.06C68.69,-75.96 64.9,-136.53 62.7,-171.75"/>
<polygon fill="black" stroke="black" points="59.21,-171.61 62.07,-181.8 66.19,-172.04 59.21,-171.61"/>
<text text-anchor="middle" x="70.5" y="-109.3" font-family="Times New Roman,serif" font-size="14.00">0</text>
</g>
<!-- 2&#45;&gt;0 -->
<g id="edge5" class="edge">
<title>2&#45;&gt;0</title>
<path fill="none" stroke="black" d="M78.78,-43.02C80.52,-49.05 82.13,-55.73 83,-62 89.22,-106.98 88.18,-119.99 77,-164 76.12,-167.47 74.9,-171.03 73.53,-174.47"/>
<polygon fill="black" stroke="black" points="70.27,-173.2 69.41,-183.76 76.67,-176.04 70.27,-173.2"/>
<text text-anchor="middle" x="89.5" y="-109.3" font-family="Times New Roman,serif" font-size="14.00">1</text>
</g>
<!-- 3&#45;&gt;0 -->
<g id="edge6" class="edge">
<title>3&#45;&gt;0</title>
<path fill="none" stroke="black" d="M25.84,-129.49C32.19,-142.04 41.25,-159.96 48.59,-174.47"/>
<polygon fill="black" stroke="black" points="45.48,-176.07 53.11,-183.41 51.72,-172.91 45.48,-176.07"/>
<text text-anchor="middle" x="46.5" y="-152.8" font-family="Times New Roman,serif" font-size="14.00">0</text>
</g>
<!-- 3&#45;&gt;2 -->
<g id="edge7" class="edge">
<title>3&#45;&gt;2</title>
<path fill="none" stroke="black" d="M26.92,-97.3C34.73,-84.43 46.28,-65.39 55.74,-49.81"/>
<polygon fill="black" stroke="black" points="58.82,-51.47 61.02,-41.1 52.84,-47.84 58.82,-51.47"/>
<text text-anchor="middle" x="52.5" y="-65.8" font-family="Times New Roman,serif" font-size="14.00">1</text>
</g>
</g>
</svg>
