<?xml version="1.0" encoding="UTF-8" standalone="no"?>
<!DOCTYPE svg PUBLIC "-//W3C//DTD SVG 1.1//EN"
 "http://www.w3.org/Graphics/SVG/1.1/DTD/svg11.dtd">
<!-- Generated by graphviz version 2.47.1 (20210417.1919)
 -->
<!-- Title: Gen400 Pages: 1 -->
<svg width="269pt" height="568pt"
 viewBox="0.00 0.00 269.00 567.60" xmlns="http://www.w3.org/2000/svg" xmlns:xlink="http://www.w3.org/1999/xlink">
<g id="graph0" class="graph" transform="scale(1 1) rotate(0) translate(4 563.6)">
<title>Gen400</title>
<polygon fill="white" stroke="transparent" points="-4,4 -4,-563.6 265,-563.6 265,4 -4,4"/>
<!-- 0 -->
<g id="node1" class="node">
<title>0</title>
<ellipse fill="none" stroke="black" cx="178" cy="-497" rx="18" ry="18"/>
<ellipse fill="none" stroke="black" cx="178" cy="-497" rx="22" ry="22"/>
<text text-anchor="middle" x="178" y="-493.3" font-family="Times New Roman,serif" font-size="14.00">0</text>
</g>
<!-- 1 -->
<g id="node3" class="node">
<title>1</title>
<ellipse fill="none" stroke="black" cx="58" cy="-402" rx="18" ry="18"/>
<ellipse fill="none" stroke="black" cx="58" cy="-402" rx="22" ry="22"/>
<text text-anchor="middle" x="58" y="-398.3" font-family="Times New Roman,serif" font-size="14.00">1</text>
</g>
<!-- 0&#45;&gt;1 -->
<g id="edge2" class="edge">
<title>0&#45;&gt;1</title>
<path fill="none" stroke="black" d="M159.47,-484.69C147.61,-477.23 132.05,-467.01 119,-457 106,-447.03 92.27,-435.02 81.13,-424.86"/>
<polygon fill="black" stroke="black" points="83.25,-422.05 73.53,-417.85 78.51,-427.2 83.25,-422.05"/>
<text text-anchor="middle" x="124" y="-445.8" font-family="Times New Roman,serif" font-size="14.00">A</text>
</g>
<!-- 2 -->
<g id="node4" class="node">
<title>2</title>
<ellipse fill="none" stroke="black" cx="142" cy="-117" rx="18" ry="18"/>
<ellipse fill="none" stroke="black" cx="142" cy="-117" rx="22" ry="22"/>
<text text-anchor="middle" x="142" y="-113.3" font-family="Times New Roman,serif" font-size="14.00">2</text>
</g>
<!-- 0&#45;&gt;2 -->
<g id="edge3" class="edge">
<title>0&#45;&gt;2</title>
<path fill="none" stroke="black" d="M189.59,-477.92C200.11,-459.74 214,-430.53 214,-403 214,-403 214,-403 214,-211 214,-180.13 188.89,-153.29 168.33,-136.48"/>
<polygon fill="black" stroke="black" points="170.21,-133.51 160.17,-130.12 165.91,-139.03 170.21,-133.51"/>
<text text-anchor="middle" x="219" y="-303.3" font-family="Times New Roman,serif" font-size="14.00">X</text>
</g>
<!-- S -->
<g id="node2" class="node">
<title>S</title>
<ellipse fill="black" stroke="black" cx="178" cy="-557.8" rx="1.8" ry="1.8"/>
</g>
<!-- S&#45;&gt;0 -->
<g id="edge1" class="edge">
<title>S&#45;&gt;0</title>
<path fill="none" stroke="black" d="M178,-555.78C178,-552.41 178,-541.16 178,-529.48"/>
<polygon fill="black" stroke="black" points="181.5,-529.29 178,-519.29 174.5,-529.29 181.5,-529.29"/>
</g>
<!-- 1&#45;&gt;1 -->
<g id="edge6" class="edge">
<title>1&#45;&gt;1</title>
<path fill="none" stroke="black" d="M78.58,-410.37C88.84,-411.53 98,-408.74 98,-402 98,-397.68 94.24,-394.99 88.84,-393.91"/>
<polygon fill="black" stroke="black" points="88.67,-390.41 78.58,-393.63 88.48,-397.4 88.67,-390.41"/>
<text text-anchor="middle" x="102.5" y="-398.3" font-family="Times New Roman,serif" font-size="14.00">Z</text>
</g>
<!-- 3 -->
<g id="node5" class="node">
<title>3</title>
<ellipse fill="none" stroke="black" cx="111" cy="-307" rx="18" ry="18"/>
<ellipse fill="none" stroke="black" cx="111" cy="-307" rx="22" ry="22"/>
<text text-anchor="middle" x="111" y="-303.3" font-family="Times New Roman,serif" font-size="14.00">3</text>
</g>
<!-- 1&#45;&gt;3 -->
<g id="edge4" class="edge">
<title>1&#45;&gt;3</title>
<path fill="none" stroke="black" d="M68.47,-382.63C76.12,-369.21 86.61,-350.8 95.26,-335.61"/>
<polygon fill="black" stroke="black" points="98.46,-337.08 100.37,-326.65 92.38,-333.61 98.46,-337.08"/>
<text text-anchor="middle" x="93" y="-350.8" font-family="Times New Roman,serif" font-size="14.00">B</text>
</g>
<!-- 4 -->
<g id="node6" class="node">
<title>4</title>
<ellipse fill="none" stroke="black" cx="61" cy="-22" rx="18" ry="18"/>
<ellipse fill="none" stroke="black" cx="61" cy="-22" rx="22" ry="22"/>
<text text-anchor="middle" x="61" y="-18.3" font-family="Times New Roman,serif" font-size="14.00">4</text>
</g>
<!-- 1&#45;&gt;4 -->
<g id="edge5" class="edge">
<title>1&#45;&gt;4</title>
<path fill="none" stroke="black" d="M41.84,-386.62C24.68,-369.67 0,-339.78 0,-308 0,-308 0,-308 0,-116 0,-87.87 19.76,-61.64 36.78,-44.25"/>
<polygon fill="black" stroke="black" points="39.6,-46.39 44.33,-36.91 34.72,-41.37 39.6,-46.39"/>
<text text-anchor="middle" x="5" y="-208.3" font-family="Times New Roman,serif" font-size="14.00">X</text>
</g>
<!-- 2&#45;&gt;4 -->
<g id="edge7" class="edge">
<title>2&#45;&gt;4</title>
<path fill="none" stroke="black" d="M127.89,-99.8C115.19,-85.22 96.36,-63.6 81.91,-47.01"/>
<polygon fill="black" stroke="black" points="84.43,-44.57 75.22,-39.33 79.15,-49.17 84.43,-44.57"/>
<text text-anchor="middle" x="112" y="-65.8" font-family="Times New Roman,serif" font-size="14.00">A</text>
</g>
<!-- 5 -->
<g id="node7" class="node">
<title>5</title>
<ellipse fill="none" stroke="black" cx="198" cy="-22" rx="18" ry="18"/>
<ellipse fill="none" stroke="black" cx="198" cy="-22" rx="22" ry="22"/>
<text text-anchor="middle" x="198" y="-18.3" font-family="Times New Roman,serif" font-size="14.00">5</text>
</g>
<!-- 2&#45;&gt;5 -->
<g id="edge9" class="edge">
<title>2&#45;&gt;5</title>
<path fill="none" stroke="black" d="M152.88,-97.46C159.04,-87.02 166.9,-73.75 174,-62 176.38,-58.07 178.9,-53.92 181.39,-49.86"/>
<polygon fill="black" stroke="black" points="184.45,-51.57 186.7,-41.22 178.49,-47.9 184.45,-51.57"/>
<text text-anchor="middle" x="179" y="-65.8" font-family="Times New Roman,serif" font-size="14.00">Y</text>
</g>
<!-- 9 -->
<g id="node9" class="node">
<title>9</title>
<ellipse fill="none" stroke="black" cx="140" cy="-22" rx="18" ry="18"/>
<text text-anchor="middle" x="140" y="-18.3" font-family="Times New Roman,serif" font-size="14.00">9</text>
</g>
<!-- 2&#45;&gt;9 -->
<g id="edge8" class="edge">
<title>2&#45;&gt;9</title>
<path fill="none" stroke="black" d="M141.43,-94.95C141.28,-89.14 141.13,-82.82 141,-77 140.81,-68.3 140.62,-58.81 140.47,-50.25"/>
<polygon fill="black" stroke="black" points="143.96,-49.96 140.28,-40.03 136.96,-50.09 143.96,-49.96"/>
<text text-anchor="middle" x="146" y="-65.8" font-family="Times New Roman,serif" font-size="14.00">B</text>
</g>
<!-- 3&#45;&gt;0 -->
<g id="edge10" class="edge">
<title>3&#45;&gt;0</title>
<path fill="none" stroke="black" d="M118.12,-327.97C129.92,-361.09 153.61,-427.55 167.39,-466.22"/>
<polygon fill="black" stroke="black" points="164.18,-467.64 170.83,-475.88 170.77,-465.29 164.18,-467.64"/>
<text text-anchor="middle" x="158" y="-398.3" font-family="Times New Roman,serif" font-size="14.00">C</text>
</g>
<!-- 6 -->
<g id="node8" class="node">
<title>6</title>
<ellipse fill="none" stroke="black" cx="111" cy="-212" rx="18" ry="18"/>
<ellipse fill="none" stroke="black" cx="111" cy="-212" rx="22" ry="22"/>
<text text-anchor="middle" x="111" y="-208.3" font-family="Times New Roman,serif" font-size="14.00">6</text>
</g>
<!-- 3&#45;&gt;6 -->
<g id="edge11" class="edge">
<title>3&#45;&gt;6</title>
<path fill="none" stroke="black" d="M111,-284.9C111,-272.89 111,-257.62 111,-244.24"/>
<polygon fill="black" stroke="black" points="114.5,-244.02 111,-234.02 107.5,-244.02 114.5,-244.02"/>
<text text-anchor="middle" x="116" y="-255.8" font-family="Times New Roman,serif" font-size="14.00">X</text>
</g>
<!-- 4&#45;&gt;1 -->
<g id="edge13" class="edge">
<title>4&#45;&gt;1</title>
<path fill="none" stroke="black" d="M55.75,-43.53C51.43,-62.28 46,-90.81 46,-116 46,-308 46,-308 46,-308 46,-328.82 49,-352.05 51.99,-370.09"/>
<polygon fill="black" stroke="black" points="48.56,-370.8 53.74,-380.05 55.46,-369.59 48.56,-370.8"/>
<text text-anchor="middle" x="51" y="-208.3" font-family="Times New Roman,serif" font-size="14.00">Y</text>
</g>
<!-- 4&#45;&gt;6 -->
<g id="edge12" class="edge">
<title>4&#45;&gt;6</title>
<path fill="none" stroke="black" d="M66.44,-43.45C75.23,-76.49 92.59,-141.79 102.86,-180.39"/>
<polygon fill="black" stroke="black" points="99.6,-181.76 105.55,-190.52 106.37,-179.96 99.6,-181.76"/>
<text text-anchor="middle" x="97" y="-113.3" font-family="Times New Roman,serif" font-size="14.00">B</text>
</g>
<!-- 5&#45;&gt;0 -->
<g id="edge15" class="edge">
<title>5&#45;&gt;0</title>
<path fill="none" stroke="black" d="M213.33,-37.91C229.29,-55.1 252,-85.01 252,-116 252,-403 252,-403 252,-403 252,-434.51 225.66,-461.53 204.41,-478.19"/>
<polygon fill="black" stroke="black" points="202.2,-475.47 196.29,-484.27 206.4,-481.08 202.2,-475.47"/>
<text text-anchor="middle" x="256.5" y="-255.8" font-family="Times New Roman,serif" font-size="14.00">Z</text>
</g>
<!-- 5&#45;&gt;1 -->
<g id="edge14" class="edge">
<title>5&#45;&gt;1</title>
<path fill="none" stroke="black" d="M198.81,-44.31C199.85,-96.55 196.76,-233.71 142,-329 128.53,-352.43 104.49,-371.86 85.57,-384.6"/>
<polygon fill="black" stroke="black" points="83.51,-381.77 77.03,-390.14 87.32,-387.64 83.51,-381.77"/>
<text text-anchor="middle" x="193" y="-208.3" font-family="Times New Roman,serif" font-size="14.00">A</text>
</g>
<!-- 6&#45;&gt;2 -->
<g id="edge16" class="edge">
<title>6&#45;&gt;2</title>
<path fill="none" stroke="black" d="M117.73,-190.82C121.91,-178.27 127.37,-161.9 132.05,-147.86"/>
<polygon fill="black" stroke="black" points="135.44,-148.73 135.29,-138.14 128.8,-146.52 135.44,-148.73"/>
<text text-anchor="middle" x="134" y="-160.8" font-family="Times New Roman,serif" font-size="14.00">C</text>
</g>
</g>
</svg>
